# xmcd
#
# Track frame offsets:
#	150
#	16693
#	31360
#	45207
#	59968
#	75662
#	89024
#	103382
#	118749
#	131657
#	151940
#
# Disc length: 2239 seconds
#
# Revision: 3
# Processed by: cddbd v1.5.2PL0 Copyright (c) Steve Scherf et al.
# Submitted via: EasyCDDAExtractor 15.3.0.1
#
DISCID=8e08bd0b
DTITLE=Mariana - Con Sabor A... Mariana
DYEAR=2006
DGENRE=Latin
TTITLE0=Mermelada
TTITLE1=El Pueblo
TTITLE2=Que Rico
TTITLE3=Ahora Vete
TTITLE4=Con Veneno O Con Miel
TTITLE5=La Mañana
TTITLE6=Caricatura De Amor
TTITLE7=No Te Dejo De Pensar
TTITLE8=Si Te Vas
TTITLE9=Tan Solo Puedo Amarte
TTITLE10=Mermelada (Cumbia Norteña) (Con La Participacion De Control)
EXTD=
EXTT0=
EXTT1=
EXTT2=
EXTT3=
EXTT4=
EXTT5=
EXTT6=
EXTT7=
EXTT8=
EXTT9=
EXTT10=
PLAYORDER=
